<?xml version="1.0" standalone="no"?>
<!DOCTYPE svg PUBLIC "-//W3C//DTD SVG 20010904//EN"
 "http://www.w3.org/TR/2001/REC-SVG-20010904/DTD/svg10.dtd">
<svg version="1.0" xmlns="http://www.w3.org/2000/svg"
 width="700.000000pt" height="700.000000pt" viewBox="0 0 700.000000 700.000000"
 preserveAspectRatio="xMidYMid meet">
<metadata>
Created by potrace 1.14, written by Peter Selinger 2001-2017
</metadata>
<g transform="translate(0.000000,700.000000) scale(0.100000,-0.100000)"
fill="#000000" stroke="none">
<path d="M3260 6406 l-105 -11 0 -2895 0 -2895 75 -7 c41 -4 92 -9 113 -12
l37 -4 0 2919 c0 1605 -3 2918 -7 2918 -5 -1 -55 -7 -113 -13z"/>
<path d="M3620 3496 l0 -2917 33 5 c17 3 63 8 101 12 38 3 75 8 83 11 20 8 19
5778 0 5786 -8 3 -60 8 -115 12 l-102 8 0 -2917z"/>
<path d="M4080 3502 c0 -1567 3 -2851 6 -2854 5 -6 91 12 182 38 l52 15 0
2799 0 2799 -37 10 c-76 20 -168 41 -185 41 -17 0 -18 -142 -18 -2848z"/>
<path d="M2323 6166 c-330 -144 -633 -353 -888 -610 -239 -241 -399 -465 -551
-771 -168 -340 -275 -730 -289 -1053 -3 -57 -6 -107 -8 -110 -4 -7 -1 -244 3
-252 1 -3 1 -25 0 -50 -1 -25 6 -103 15 -173 107 -873 604 -1653 1347 -2116
120 -75 309 -173 421 -218 l77 -32 -1 1317 c-1 1149 -3 1307 -15 1241 -64
-357 -322 -638 -680 -741 -107 -31 -352 -33 -458 -4 -273 74 -495 253 -619
501 -27 55 -77 206 -77 233 0 9 11 -9 24 -40 72 -176 221 -307 401 -353 77
-19 211 -19 288 1 189 49 351 202 409 387 32 101 32 253 0 354 -58 185 -220
338 -409 387 -71 19 -199 21 -275 5 -176 -36 -341 -179 -414 -357 -31 -76 -30
-43 2 60 80 252 246 446 484 564 140 70 228 89 410 89 131 0 167 -4 234 -23
358 -103 616 -384 680 -741 12 -66 14 92 15 1242 1 724 0 1317 -1 1317 -2 -1
-58 -25 -125 -54z"/>
<path d="M4551 4902 c1 -1150 3 -1307 15 -1241 54 298 254 558 529 685 137 63
212 78 385 79 121 0 170 -4 225 -19 325 -88 570 -319 669 -634 32 -103 33
-136 2 -60 -72 176 -221 307 -401 353 -75 19 -213 19 -285 0 -193 -51 -354
-203 -413 -390 -31 -98 -31 -252 0 -350 59 -187 220 -339 413 -390 72 -19 210
-19 285 0 180 46 326 175 402 353 19 45 23 50 18 22 -49 -276 -274 -551 -545
-665 -113 -48 -193 -66 -320 -72 -135 -6 -232 6 -347 46 -320 110 -557 387
-617 720 -12 66 -14 -92 -15 -1241 l-1 -1318 23 9 c815 316 1465 1022 1721
1871 62 208 121 544 115 660 -2 25 0 50 3 56 4 8 3 243 -2 254 -1 3 -1 26 0
51 2 65 -27 282 -57 424 -136 651 -506 1252 -1028 1669 -223 177 -503 340
-752 437 l-23 9 1 -1318z"/>
</g>
</svg>
