<?xml version="1.0" encoding="utf-8"?>
<!-- Generator: Adobe Illustrator 25.4.1, SVG Export Plug-In . SVG Version: 6.00 Build 0)  -->
<svg version="1.1" id="Layer_1" xmlns="http://www.w3.org/2000/svg" xmlns:xlink="http://www.w3.org/1999/xlink" x="0px" y="0px"
	 viewBox="0 0 60 60" style="enable-background:new 0 0 60 60;" xml:space="preserve">
<style type="text/css">
	.st0{fill:#111111;}
</style>
<g>
	<path class="st0" d="M36.2,17.4H23.8v-0.1c-3.5,0-6.4,2.9-6.4,6.4v12.4c0,3.5,2.9,6.4,6.4,6.4h12.4c3.5,0,6.4-2.9,6.4-6.4V23.8
		C42.6,20.3,39.7,17.4,36.2,17.4z M30.1,37.7c-4.3,0-7.7-3.5-7.7-7.7c0-4.3,3.5-7.7,7.7-7.7c4.3,0,7.7,3.4,7.7,7.7
		S34.4,37.7,30.1,37.7z M38.2,23.6c-1,0-1.8-0.8-1.8-1.8s0.8-1.8,1.8-1.8s1.9,0.8,1.8,1.8C40,22.8,39.2,23.6,38.2,23.6z"/>
	<ellipse transform="matrix(0.9871 -0.1602 0.1602 0.9871 -4.4168 5.2089)" class="st0" cx="30.1" cy="30" rx="4.9" ry="4.9"/>
	<path class="st0" d="M30,3.5C15.4,3.5,3.5,15.4,3.5,30S15.4,56.5,30,56.5S56.5,44.6,56.5,30S44.6,3.5,30,3.5z M45.5,36.2
		c0.1,5.1-4.1,9.3-9.3,9.3H23.8c-5.2,0-9.3-4.2-9.3-9.3V23.8c0-5.2,4.2-9.3,9.3-9.3h12.4c5.2,0,9.3,4.2,9.3,9.3V36.2z"/>
</g>
</svg>
