<?xml version="1.0" encoding="utf-8"?>
<!-- Generator: Adobe Illustrator 25.4.1, SVG Export Plug-In . SVG Version: 6.00 Build 0)  -->
<svg version="1.1" id="Layer_1" xmlns="http://www.w3.org/2000/svg" xmlns:xlink="http://www.w3.org/1999/xlink" x="0px" y="0px"
	 viewBox="0 0 60 60" style="enable-background:new 0 0 60 60;" xml:space="preserve">
<style type="text/css">
	.st0{fill:#111111;}
</style>
<path class="st0" d="M30,3.5C15.4,3.5,3.5,15.4,3.5,30S15.4,56.5,30,56.5S56.5,44.6,56.5,30S44.6,3.5,30,3.5z M16.6,30.9l0.1-0.2
	l6.9-10.8c0.1-0.2,0.3-0.1,0.4,0c1.2,2.6,2.1,5.8,1.7,7.8c-0.2,0.8-0.7,1.9-1.4,3c-0.1,0.1-0.2,0.3-0.3,0.4c0,0.1-0.1,0.1-0.2,0.1
	h-7.1C16.6,31.3,16.5,31,16.6,30.9z M47.3,34.6c0,0.1-0.1,0.2-0.1,0.2c-0.5,0.2-2.4,1.1-3.1,2.1c-1.9,2.7-3.4,6.6-6.7,6.6H23.5
	c-4.9,0-8.9-4-8.9-8.9v-0.2c0-0.1,0.1-0.2,0.2-0.2h7.7c0.2,0,0.3,0.1,0.3,0.3c-0.1,0.5,0,1,0.3,1.5c0.5,0.9,1.4,1.5,2.4,1.5h3.8v-3
	h-3.8c-0.2,0-0.3-0.2-0.2-0.4c0-0.1,0.1-0.1,0.1-0.2c0.4-0.5,0.9-1.3,1.4-2.2c0.3-0.6,0.7-1.2,1-1.9c0.1-0.1,0.1-0.2,0.1-0.4
	c0.1-0.2,0.1-0.4,0.2-0.6s0.1-0.3,0.1-0.5c0.1-0.5,0.2-1.1,0.2-1.7c0-0.2,0-0.5,0-0.7c0-0.3,0-0.5-0.1-0.8c0-0.2-0.1-0.5-0.1-0.7
	c-0.1-0.3-0.1-0.7-0.2-1v-0.1c-0.1-0.2-0.1-0.5-0.2-0.7c-0.2-0.7-0.5-1.5-0.7-2.1c-0.1-0.3-0.2-0.5-0.3-0.8
	c-0.2-0.4-0.3-0.7-0.5-1.1c-0.1-0.2-0.1-0.3-0.2-0.4C26,18,26,17.9,25.9,17.7c-0.1-0.1-0.1-0.2-0.2-0.3l-0.5-0.9
	c-0.1-0.1,0-0.3,0.2-0.2l2.9,0.8l0,0l0,0l0.4,0.1l0.4,0.1h0.2v-1.7c0-0.8,0.7-1.5,1.5-1.5c0.4,0,0.8,0.2,1.1,0.4
	c0.3,0.3,0.4,0.7,0.4,1.1v2.6l0.3,0.1c0,0,0,0,0.1,0c0.1,0.1,0.2,0.1,0.3,0.2s0.2,0.2,0.4,0.3c0.3,0.2,0.6,0.5,1,0.9
	c0.1,0.1,0.2,0.2,0.3,0.3c0.5,0.4,1,1,1.5,1.5c0.1,0.2,0.3,0.3,0.4,0.5c0.1,0.2,0.3,0.3,0.4,0.5c0.2,0.2,0.4,0.5,0.5,0.7
	c0.1,0.1,0.2,0.2,0.2,0.4c0.2,0.3,0.4,0.6,0.6,1c0.1,0.1,0.1,0.3,0.2,0.5c0.2,0.4,0.3,0.9,0.4,1.3c0,0.1,0.1,0.2,0.1,0.3l0,0
	c0,0.1,0,0.3,0.1,0.4c0,0.5,0,0.9-0.1,1.4c0,0.2-0.1,0.4-0.2,0.6c-0.1,0.2-0.1,0.4-0.2,0.6c-0.2,0.4-0.4,0.8-0.6,1.1
	c-0.1,0.1-0.2,0.3-0.2,0.4c-0.1,0.1-0.2,0.3-0.3,0.4c-0.1,0.2-0.2,0.3-0.4,0.5c-0.1,0.2-0.2,0.3-0.4,0.5s-0.4,0.4-0.5,0.6
	c-0.1,0.1-0.2,0.3-0.3,0.4c-0.1,0.1-0.2,0.2-0.3,0.4c-0.2,0.2-0.3,0.3-0.5,0.4l-0.3,0.3c0,0-0.1,0.1-0.2,0.1h-2.3v3h2.9
	c0.7,0,1.3-0.2,1.8-0.7c0.2-0.1,0.9-0.8,1.8-1.8l0.1-0.1l8.1-2.3c0.1,0,0.3,0.1,0.3,0.2V34.6z"/>
</svg>
