<?xml version="1.0" encoding="utf-8"?>
<!-- Generator: Adobe Illustrator 25.4.1, SVG Export Plug-In . SVG Version: 6.00 Build 0)  -->
<svg version="1.1" id="Layer_1" xmlns="http://www.w3.org/2000/svg" xmlns:xlink="http://www.w3.org/1999/xlink" x="0px" y="0px"
	 viewBox="0 0 60 60" style="enable-background:new 0 0 60 60;" xml:space="preserve">
<style type="text/css">
	.st0{fill:#111111;}
	.st1{fill:#73C1E8;}
	.st2{fill:#F54949;}
</style>
<g>
	<path class="st0" d="M30,3.5C15.4,3.5,3.5,15.4,3.5,30S15.4,56.5,30,56.5S56.5,44.6,56.5,30S44.6,3.5,30,3.5z M30,44.8
		c-4.3,0-8.1-2.7-10.2-6.8v5.3c-0.7-0.3-1.3-0.7-1.9-1.2v-12c0-8.1,5.4-14.7,12.1-14.7c6.7,0,12.1,6.6,12.1,14.7S36.7,44.8,30,44.8z
		"/>
	<path class="st1" d="M30,15.3c-1-0.2-2-0.3-3-0.3c-8.3,0-15,6.7-15,15c0,4.9,2.4,9.3,6,12V30C17.9,22.8,23.1,16.7,30,15.3z"/>
	<path class="st1" d="M19.9,37.4v5.9c2.1,1.1,4.6,1.8,7.1,1.8c1,0,2-0.1,3-0.3C25.6,43.9,22,41.2,19.9,37.4z"/>
</g>
<path class="st2" d="M33,15c-1,0-2,0.1-3,0.3c6.9,1.4,12.1,7.5,12.1,14.7S36.9,43.4,30,44.8c1,0.2,2,0.3,3,0.3c8.3,0,15-6.7,15-15
	S41.3,15,33,15z"/>
</svg>
