<?xml version="1.0" encoding="utf-8"?>
<!-- Generator: Adobe Illustrator 25.4.1, SVG Export Plug-In . SVG Version: 6.00 Build 0)  -->
<svg version="1.1" id="Layer_1" xmlns="http://www.w3.org/2000/svg" xmlns:xlink="http://www.w3.org/1999/xlink" x="0px" y="0px"
	 viewBox="0 0 60 60" style="enable-background:new 0 0 60 60;" xml:space="preserve">
<style type="text/css">
	.st0{fill:#111111;}
</style>
<path class="st0" d="M40.2,39.5h-7.1c-0.4,0-0.7-0.3-0.7-0.7V21.1c0-0.4,0.3-0.7,0.7-0.7h6.5c4.9,0,5.9,2.9,5.9,5.3
	c0,1.4-0.4,2.5-1.1,3.3c1.8,0.7,2.8,2.4,2.8,4.8C47.3,37.4,44.7,39.5,40.2,39.5 M30,39.5H15.3c-0.4,0-0.7-0.3-0.7-0.7l0,0V21.1
	c0-0.4,0.3-0.7,0.7-0.7h6.9c4.3,0,6.8,2.3,6.8,6.2c0,2.6-1.3,4.6-3.4,5.4l4.9,6.4c0.3,0.3,0.2,0.7-0.1,1
	C30.3,39.5,30.1,39.5,30,39.5 M30,3.5C15.4,3.5,3.5,15.4,3.5,30S15.4,56.5,30,56.5S56.5,44.6,56.5,30S44.6,3.5,30,3.5"/>
</svg>
