<?xml version="1.0" encoding="utf-8"?>
<!-- Generator: Adobe Illustrator 25.4.1, SVG Export Plug-In . SVG Version: 6.00 Build 0)  -->
<svg version="1.1" id="Layer_1" xmlns="http://www.w3.org/2000/svg" xmlns:xlink="http://www.w3.org/1999/xlink" x="0px" y="0px"
	 viewBox="0 0 60 60" style="enable-background:new 0 0 60 60;" xml:space="preserve">
<style type="text/css">
	.st0{fill-rule:evenodd;clip-rule:evenodd;fill:#111111;}
	.st1{fill-rule:evenodd;clip-rule:evenodd;fill:#FF1753;}
	.st2{fill-rule:evenodd;clip-rule:evenodd;fill:#00C9D0;}
</style>
<g>
	<path class="st0" d="M30,3.5C15.4,3.5,3.5,15.4,3.5,30S15.4,56.5,30,56.5S56.5,44.6,56.5,30S44.6,3.5,30,3.5z M43,26.5
		c-2.8,0-5.4-0.9-7.6-2.4h-0.1v11.2c0,5.6-4.5,10.1-10.1,10.1c-2.1,0-4-0.6-5.6-1.7c-1.8-1.9-2.9-4.3-2.9-7.1c0-5.5,4.4-10,9.9-10.1
		v4.4c-0.4-0.1-0.9-0.2-1.4-0.2c-2.5,0-4.6,2-4.6,4.6c0,1.8,1,3.3,2.5,4.1c0.9,1.1,2.2,1.8,3.7,1.8c2.5,0,4.6-2.1,4.6-4.6V14.7h4
		c0.4,2.2,1.7,4.1,3.5,5.2c1.1,1.1,2.5,2,4.1,2.3V26.5z"/>
	<path class="st1" d="M37,25.4c2.2,1.5,4.8,2.4,7.6,2.4v-5.5c-0.5,0-1.1-0.1-1.6-0.2v4.3c-2.8,0-5.5-0.9-7.6-2.4v11.2
		c0,5.6-4.5,10.1-10.1,10.1c-2.1,0-4-0.6-5.6-1.7c1.8,1.9,4.4,3,7.2,3c5.6,0,10.1-4.5,10.1-10.1V25.4L37,25.4z M38.9,19.9
		c-1.1-1.2-1.8-2.8-2-4.5v-0.7h-1.5C35.8,16.9,37.1,18.8,38.9,19.9L38.9,19.9z M23.1,39.4c-0.6-0.8-0.9-1.8-0.9-2.8
		c0-2.6,2.1-4.6,4.6-4.6c0.5,0,1,0.1,1.4,0.2v-5.6c-0.5-0.1-1.1-0.1-1.6-0.1v4.4c-0.5-0.1-0.9-0.2-1.4-0.2c-2.6,0-4.6,2.1-4.6,4.6
		C20.6,37.1,21.6,38.6,23.1,39.4z"/>
	<path class="st2" d="M43,22.2V21c-1.4,0-2.8-0.4-4.1-1.2C40,21.1,41.4,21.9,43,22.2z M35.5,14.7c0-0.2-0.1-0.4-0.1-0.6v-0.7h-5.5
		v21.9c0,2.5-2.1,4.6-4.6,4.6c-0.7,0-1.5-0.2-2.1-0.5c0.8,1.1,2.2,1.8,3.7,1.8c2.6,0,4.6-2.1,4.6-4.6V14.7H35.5z M26.6,26.5v-1.2
		c-0.5-0.1-0.9-0.1-1.4-0.1c-5.6,0-10.1,4.5-10.1,10.1c0,3.5,1.8,6.6,4.5,8.4c-1.8-1.8-2.9-4.3-2.9-7.1
		C16.7,31.1,21.1,26.6,26.6,26.5L26.6,26.5z"/>
</g>
</svg>
